<svg width="16" height="12" viewBox="0 0 16 12" fill="none" xmlns="http://www.w3.org/2000/svg">
<path d="M3.02379 4.94118C3.02379 5.33102 2.70399 5.64706 2.3095 5.64706C1.91501 5.64706 1.59521 5.33102 1.59521 4.94118V2.11765C1.59521 0.948103 2.5546 0 3.73807 0C4.92154 0 5.88093 0.948103 5.88093 2.11765C5.88093 2.5075 5.56113 2.82353 5.16664 2.82353C4.77215 2.82353 4.45236 2.5075 4.45236 2.11765C4.45236 1.7278 4.13256 1.41176 3.73807 1.41176C3.34358 1.41176 3.02379 1.7278 3.02379 2.11765V4.94118Z" fill="#858595"/>
<path d="M3.02379 11.9998H1.59521C1.59521 10.0506 3.1942 9.17627 5.16664 9.17627H9.45236C11.4248 9.17627 13.0238 10.0506 13.0238 11.9998H11.5952C11.5952 10.8303 10.6358 10.588 9.45236 10.588H5.16664C3.98318 10.588 3.02379 10.8303 3.02379 11.9998Z" fill="#858595"/>
<path fill-rule="evenodd" clip-rule="evenodd" d="M15.1666 4.23535H0.166626L0.527908 7.44864C0.728874 9.23605 2.25767 10.5883 4.07749 10.5883H11.2558C13.0756 10.5883 14.6044 9.23605 14.8053 7.44864L15.1666 4.23535ZM11.2738 8.40012C12.0913 7.79421 12.4881 7.00995 12.4881 6.00012C12.4881 5.70773 12.7279 5.4707 13.0238 5.4707C13.3196 5.4707 13.5595 5.70773 13.5595 6.00012C13.5595 7.34322 13.0039 8.44131 11.9166 9.24717C11.6799 9.42261 11.3441 9.3752 11.1666 9.14129C10.9891 8.90738 11.0371 8.57555 11.2738 8.40012Z" fill="#858595"/>
</svg>
