<svg width="12" height="12" viewBox="0 0 12 12" fill="none" xmlns="http://www.w3.org/2000/svg">
<path fill-rule="evenodd" clip-rule="evenodd" d="M10.8 1.2C11.1313 1.2 11.4 1.46863 11.4 1.8V3.006H0.599976V1.8C0.599976 1.46863 0.868605 1.2 1.19998 1.2H2.99998V0H4.19998V1.2H7.79998V0H8.99998V1.2H10.8ZM10.8 12H1.19998C0.868605 12 0.599976 11.7314 0.599976 11.4V4.206H11.4V11.4C11.4 11.7314 11.1313 12 10.8 12ZM8.99998 6H7.79998V7.2H8.99998V6ZM7.79998 8.4H8.99998V9.6H7.79998V8.4ZM6.59998 6H5.39998V7.2H6.59998V6ZM5.39998 8.4H6.59998V9.6H5.39998V8.4ZM4.19998 6H2.99998V7.2H4.19998V6ZM2.99998 8.4H4.19998V9.6H2.99998V8.4Z" fill="#D9DBE4"/>
</svg>
