<svg width="30" height="30" viewBox="0 0 30 30" fill="none" xmlns="http://www.w3.org/2000/svg">
<g filter="url(#filter0_b_0_2387)">
<path fill-rule="evenodd" clip-rule="evenodd" d="M15 0C23.2843 0 30 6.71573 30 15C30 23.2843 23.2843 30 15 30C6.71573 30 0 23.2843 0 15C0 6.71573 6.71573 0 15 0Z" fill="black" fill-opacity="0.01"/>
</g>
<path fill-rule="evenodd" clip-rule="evenodd" d="M15 0C23.2843 0 30 6.71573 30 15C30 23.2843 23.2843 30 15 30C6.71573 30 0 23.2843 0 15C0 6.71573 6.71573 0 15 0Z" fill="white"/>
<g clip-path="url(#clip0_0_2387)">
<path fill-rule="evenodd" clip-rule="evenodd" d="M14.7862 19.7639H12.7359C12.5821 19.7639 12.4573 19.6386 12.4573 19.4844V16.1302C12.4573 15.9759 12.5821 15.8507 12.7359 15.8507H16.3863C16.944 15.4985 17.6014 15.2916 18.3073 15.2916C18.6549 15.2916 19.0031 15.3431 19.3419 15.4443C19.4266 15.4705 19.5174 15.4532 19.5876 15.4007C19.626 15.3721 19.6556 15.3341 19.6751 15.2916H21.098C21.2607 15.2883 21.3827 15.1687 21.3821 15.0121C21.3821 14.9109 21.3286 14.8226 21.2484 14.7734L19.6996 13.2193V8.86283C19.6996 8.70854 19.5748 8.58331 19.421 8.58331H17.1925C17.0387 8.58331 16.9139 8.70854 16.9139 8.86283V10.4242L15.3578 8.86283C14.9996 8.50281 14.3728 8.50225 14.0134 8.86283L8.08159 14.8142C8.00192 14.8942 7.97796 15.0144 8.02142 15.1189C8.06432 15.2234 8.16627 15.2916 8.27882 15.2916H9.67166V21.7205C9.67166 21.8748 9.79646 22 9.95023 22H15.5801C15.6932 22 15.7952 21.9312 15.8381 21.8261C15.881 21.721 15.8559 21.6003 15.7751 21.5209C15.2776 21.0317 14.9416 20.4246 14.7862 19.7639ZM18.3524 15.8506C16.6626 15.8506 15.2882 17.2298 15.2882 18.9253C15.2882 20.6208 16.6626 21.9999 18.3524 21.9999C20.0422 21.9999 21.4167 20.6208 21.4167 18.9253C21.4167 17.2298 20.0422 15.8506 18.3524 15.8506ZM18.631 19.2048H19.4667C19.621 19.2048 19.7453 19.0796 19.7453 18.9253C19.7453 18.771 19.6205 18.6458 19.4667 18.6458H18.631V17.8072C18.631 17.6529 18.5062 17.5277 18.3524 17.5277C18.1986 17.5277 18.0738 17.6529 18.0738 17.8072V18.6458H17.2381C17.0844 18.6458 16.9596 18.771 16.9596 18.9253C16.9596 19.0796 17.0844 19.2048 17.2381 19.2048H18.0738V20.0433C18.0738 20.1976 18.1986 20.3229 18.3524 20.3229C18.5062 20.3229 18.631 20.1976 18.631 20.0433V19.2048Z" fill="#2E3758"/>
</g>
<defs>
<filter id="filter0_b_0_2387" x="-27.1828" y="-27.1828" width="84.3656" height="84.3656" filterUnits="userSpaceOnUse" color-interpolation-filters="sRGB">
<feFlood flood-opacity="0" result="BackgroundImageFix"/>
<feGaussianBlur in="BackgroundImage" stdDeviation="13.5914"/>
<feComposite in2="SourceAlpha" operator="in" result="effect1_backgroundBlur_0_2387"/>
<feBlend mode="normal" in="SourceGraphic" in2="effect1_backgroundBlur_0_2387" result="shape"/>
</filter>
<clipPath id="clip0_0_2387">
<rect width="14" height="14" fill="white" transform="translate(8 8)"/>
</clipPath>
</defs>
</svg>
