<svg width="24" height="21" viewBox="0 0 24 21" fill="none" xmlns="http://www.w3.org/2000/svg">
<path fill-rule="evenodd" clip-rule="evenodd" d="M7.44536 10.4905C9.40127 10.4905 10.9908 8.85458 10.9908 6.84162C10.9908 4.82866 9.40127 3.19275 7.44536 3.19275C5.48945 3.19275 3.8999 4.82866 3.8999 6.84162C3.8999 8.85458 5.48945 10.4905 7.44536 10.4905Z" fill="#0A6ADA"/>
<path fill-rule="evenodd" clip-rule="evenodd" d="M11.8182 3.27877H19.2727C21.8845 3.27877 24 5.45593 24 8.14393V18.8988C24 19.6345 23.4036 20.2308 22.668 20.2308H22.032C21.2964 20.2308 20.7 19.6344 20.7 18.8988V15.4417H3.1V18.8988C3.1 19.6345 2.50364 20.2308 1.768 20.2308H1.332C0.596357 20.2308 0 19.6345 0 18.8988V2.02801C0 1.37531 0.529118 0.846191 1.18182 0.846191C1.83452 0.846191 2.36364 1.37531 2.36364 2.02801V11.7928H11.8182V3.27877ZM10.6364 5.78739C10.6364 7.80035 9.04683 9.43626 7.09092 9.43626C5.13501 9.43626 3.54546 7.80035 3.54546 5.78739C3.54546 3.77443 5.13501 2.13852 7.09092 2.13852C9.04683 2.13852 10.6364 3.77443 10.6364 5.78739Z" fill="white"/>
</svg>
