<svg width="18" height="14" viewBox="0 0 18 14" fill="none" xmlns="http://www.w3.org/2000/svg">
<path d="M5 1.55267C5 0.862318 5.55964 0.302673 6.25 0.302673H16.75C17.4403 0.302673 18 0.862317 18 1.55267V1.68425C18 2.3746 17.4403 2.93425 16.75 2.93425H6.25C5.55964 2.93425 5 2.3746 5 1.68425V1.55267Z" fill="white"/>
<path d="M5 6.8158C5 6.12544 5.55964 5.5658 6.25 5.5658H16.75C17.4403 5.5658 18 6.12544 18 6.8158V6.94737C18 7.63772 17.4403 8.19737 16.75 8.19737H6.25C5.55964 8.19737 5 7.63772 5 6.94737V6.8158Z" fill="white"/>
<path d="M0 12.079C0 11.3886 0.559644 10.829 1.25 10.829H16.75C17.4403 10.829 18 11.3886 18 12.079V12.2106C18 12.9009 17.4403 13.4606 16.75 13.4606H1.25C0.559645 13.4606 0 12.9009 0 12.2106V12.079Z" fill="white"/>
</svg>
