<svg width="11" height="14" viewBox="0 0 11 14" fill="none" xmlns="http://www.w3.org/2000/svg">
<path fill-rule="evenodd" clip-rule="evenodd" d="M0.1875 4.95833C0.1875 2.22425 2.41175 0 5.14583 0C7.87992 0 10.1042 2.22425 10.1042 4.95833C10.1042 9.75158 5.53083 13.7603 5.33658 13.9288C5.28175 13.9761 5.21408 14 5.14583 14C5.07758 14 5.00992 13.9761 4.95508 13.9288C4.76025 13.7608 0.1875 9.75217 0.1875 4.95833ZM7.1875 6.36299C7.52642 6.24224 7.77083 5.9214 7.77083 5.54165H7.77142V4.66665C7.77142 4.5564 7.709 4.45549 7.61042 4.4059L7.135 4.16849L6.72258 2.93182C6.603 2.57424 6.26933 2.3339 5.8925 2.3339H4.39975C4.02233 2.3339 3.68925 2.57424 3.56967 2.93182L3.15725 4.16849L2.68183 4.4059C2.58325 4.45549 2.52083 4.5564 2.52083 4.66665V5.54165C2.52083 5.9214 2.76525 6.24224 3.10417 6.36299V6.70832C3.10417 6.86932 3.23483 6.99999 3.39583 6.99999C3.55683 6.99999 3.6875 6.86932 3.6875 6.70832V6.41665H6.60417V6.70832C6.60417 6.86932 6.73483 6.99999 6.89583 6.99999C7.05683 6.99999 7.1875 6.86932 7.1875 6.70832V6.36299Z" fill="#858595"/>
<path d="M3.97913 5.83333H3.39579C3.23479 5.83333 3.10413 5.70267 3.10413 5.54167C3.10413 5.38067 3.23479 5.25 3.39579 5.25H3.97913C4.14013 5.25 4.27079 5.38067 4.27079 5.54167C4.27079 5.70267 4.14013 5.83333 3.97913 5.83333Z" fill="#858595"/>
<path d="M6.89587 5.83333H6.31254C6.15154 5.83333 6.02087 5.70267 6.02087 5.54167C6.02087 5.38067 6.15154 5.25 6.31254 5.25H6.89587C7.05687 5.25 7.18754 5.38067 7.18754 5.54167C7.18754 5.70267 7.05687 5.83333 6.89587 5.83333Z" fill="#858595"/>
<path d="M7.77074 4.95836C7.7404 4.95836 7.70949 4.95369 7.67857 4.94319L6.80357 4.65153C6.65074 4.60078 6.56849 4.43569 6.61924 4.28286C6.66999 4.13003 6.83332 4.04719 6.9879 4.09853L7.8629 4.39019C8.01574 4.44094 8.09799 4.60603 8.04724 4.75886C8.0064 4.88136 7.89265 4.95836 7.77074 4.95836Z" fill="white"/>
<path d="M2.22922 4.95853C2.09856 4.95853 1.97956 4.87045 1.94689 4.73745C1.90781 4.58112 2.00289 4.42303 2.15922 4.38395L3.32589 4.09228C3.48164 4.05262 3.64031 4.14828 3.67939 4.30462C3.71847 4.46095 3.62339 4.61903 3.46706 4.65812L2.30039 4.94978C2.27647 4.95562 2.25256 4.95853 2.22922 4.95853Z" fill="white"/>
<path d="M6.89579 4.66665H3.39579C3.23479 4.66665 3.10413 4.53598 3.10413 4.37498C3.10413 4.21398 3.23479 4.08331 3.39579 4.08331H6.89579C7.05679 4.08331 7.18746 4.21398 7.18746 4.37498C7.18746 4.53598 7.05679 4.66665 6.89579 4.66665Z" fill="#858595"/>
</svg>
