<svg width="11" height="17" viewBox="0 0 11 17" fill="none" xmlns="http://www.w3.org/2000/svg">
<path opacity="0.9" fill-rule="evenodd" clip-rule="evenodd" d="M0 0.66687L3.67548 6.995C3.97161 6.91062 4.28516 6.84312 4.61613 6.80937L1.06258 0.66687H0ZM3.3271 0.66687L6.96774 6.96125C6.60194 6.85999 6.21871 6.7925 5.81806 6.75875L2.28194 0.66687H3.3271ZM5.4 7.77125C2.82194 7.77125 0.714194 9.81312 0.714194 12.3106C0.714194 14.8081 2.82194 16.85 5.4 16.85C7.97806 16.85 10.0858 14.8081 10.0858 12.3106C10.0858 9.79624 7.97806 7.77125 5.4 7.77125ZM5.4 15.8037C3.41419 15.8037 1.79419 14.2344 1.79419 12.3106C1.79419 10.3869 3.41419 8.80062 5.4 8.80062C7.38581 8.80062 9.00581 10.37 9.00581 12.2937C9.00581 14.2175 7.38581 15.8037 5.4 15.8037ZM6.70645 12.6987L7.80387 11.8212C7.99548 11.6525 7.89097 11.3319 7.6471 11.315L6.23613 11.2137L5.69613 9.94812C5.64387 9.83 5.53935 9.7625 5.41742 9.7625C5.29548 9.7625 5.19097 9.83 5.13871 9.94812L4.59871 11.2137L3.18774 11.315C2.92645 11.3319 2.80452 11.6525 3.01355 11.8212L4.11097 12.6987L3.78 14.015C3.72774 14.2006 3.88452 14.3694 4.05871 14.3694C4.11097 14.3694 4.16323 14.3525 4.21548 14.3187L5.4 13.5931L6.60194 14.3187C6.65419 14.3525 6.70645 14.3694 6.75871 14.3694C6.9329 14.3694 7.08968 14.2175 7.03742 14.015L6.70645 12.6987ZM9.73742 0.66687H10.8L7.71677 5.99937L7.17677 5.07125L9.73742 0.66687ZM6.5671 4.025L8.51806 0.66687H7.4729L6.04452 3.13062L6.5671 4.025Z" fill="white"/>
</svg>
