<svg width="16" height="12" viewBox="0 0 16 12" fill="none" xmlns="http://www.w3.org/2000/svg">
<path d="M11.8814 4.05007L4.70913 0.596698C4.25968 0.380863 3.68391 0.588727 3.47482 1.04002L2.14915 3.91211C1.94006 4.36524 2.13627 4.90974 2.58573 5.12618L9.75798 8.57956C9.88368 8.64026 10.018 8.67031 10.1565 8.67031C10.514 8.67031 10.8414 8.4606 10.9917 8.13562L12.3173 5.26354C12.5271 4.81102 12.3308 4.26652 11.8814 4.05007Z" fill="#858595"/>
<path d="M5.85391 11.3332H0.948553C0.779318 11.3332 0.641968 11.1959 0.641968 11.0267C0.641968 10.8574 0.779318 10.7201 0.948553 10.7201H5.54733V8.57398C5.54733 8.40475 5.68468 8.2674 5.85391 8.2674C6.02315 8.2674 6.1605 8.40475 6.1605 8.57398V11.0267C6.1605 11.1959 6.02315 11.3332 5.85391 11.3332Z" fill="#858595"/>
<path d="M15.1888 5.84665L14.5757 5.54007C14.5033 5.50389 14.4193 5.49776 14.3414 5.52351L13.5284 5.79453L12.0997 5.22306C11.9433 5.1599 11.7643 5.23655 11.7018 5.39413C11.6423 5.54313 11.7097 5.70746 11.8508 5.77859L11.2014 7.07667C11.061 7.00677 10.8862 7.05153 10.8035 7.18949C10.7158 7.33482 10.7636 7.52306 10.9089 7.61013L12.3444 8.47163L12.6148 9.28408C12.6405 9.36073 12.6963 9.4245 12.7687 9.46129L13.3818 9.76787C13.4248 9.78933 13.4714 9.80037 13.5192 9.80037C13.5541 9.80037 13.5879 9.79485 13.6216 9.78259C13.7001 9.755 13.7638 9.69613 13.7982 9.62071L15.3311 6.24828C15.3986 6.09805 15.336 5.92085 15.1888 5.84665Z" fill="#858595"/>
<path fill-rule="evenodd" clip-rule="evenodd" d="M6.88643 6.62307C7.04646 6.56298 7.22183 6.64208 7.28253 6.80027C7.35182 6.98116 7.38677 7.16511 7.38677 7.34783C7.38677 8.19278 6.69941 8.88076 5.85385 8.88076C5.00829 8.88076 4.32092 8.19278 4.32092 7.34783C4.32092 6.67887 4.75259 6.09329 5.3952 5.89033C5.55769 5.84005 5.72876 5.92957 5.77965 6.09084C5.80357 6.1681 5.79437 6.24719 5.76187 6.31526L6.72087 6.77759C6.75398 6.70952 6.81039 6.6525 6.88643 6.62307ZM5.54731 7.348C5.54731 7.51724 5.68466 7.65459 5.85389 7.65459C6.02313 7.65459 6.16048 7.51724 6.16048 7.348C6.16048 7.17877 6.02313 7.04142 5.85389 7.04142C5.68466 7.04142 5.54731 7.17877 5.54731 7.348Z" fill="#858595"/>
</svg>
