<svg width="23" height="23" viewBox="0 0 23 23" fill="none" xmlns="http://www.w3.org/2000/svg">
<path fill-rule="evenodd" clip-rule="evenodd" d="M3.20508 5.61233L4.14024 3.25848H18.7827L19.7179 5.61233H3.20508Z" fill="#328CFF"/>
<path fill-rule="evenodd" clip-rule="evenodd" d="M17.9488 2.46156C18.7272 2.46156 19.3877 2.97848 19.6236 3.70463L22.077 11.0769V20.9231C22.077 21.6 21.5462 22.1539 20.8975 22.1539H19.718C19.0693 22.1539 18.5385 21.6 18.5385 20.9231V19.6923H4.38465V20.9231C4.38465 21.6 3.85388 22.1539 3.20517 22.1539H2.02568C1.37696 22.1539 0.846191 21.6 0.846191 20.9231V11.0769L3.29953 3.70463C3.54722 2.97848 4.19594 2.46156 4.9744 2.46156H7.92311C7.92311 1.61189 8.61191 0.923096 9.46158 0.923096H13.4616C14.3112 0.923096 15 1.61189 15 2.46156H17.9488ZM3.20517 14.1539C3.20517 15.1754 3.99542 16 4.9744 16C5.95337 16 6.74363 15.1754 6.74363 14.1539C6.74363 13.1323 5.95337 12.3077 4.9744 12.3077C3.99542 12.3077 3.20517 13.1323 3.20517 14.1539ZM17.9488 16C16.9698 16 16.1795 15.1754 16.1795 14.1539C16.1795 13.1323 16.9698 12.3077 17.9488 12.3077C18.9277 12.3077 19.718 13.1323 19.718 14.1539C19.718 15.1754 18.9277 16 17.9488 16ZM4.9744 4.30771L3.20517 9.84617H19.718L17.9488 4.30771H4.9744Z" fill="white"/>
</svg>
