<svg width="434" height="205" viewBox="0 0 434 205" fill="none" xmlns="http://www.w3.org/2000/svg">
<mask id="mask0_0_17959" style="mask-type:alpha" maskUnits="userSpaceOnUse" x="0" y="0" width="434" height="205">
<rect width="434" height="205" fill="#C4C4C4"/>
</mask>
<g mask="url(#mask0_0_17959)">
<path fill-rule="evenodd" clip-rule="evenodd" d="M301.077 99.0895C293.206 87.4579 280.189 79.8103 266.593 78.8362C261.024 78.4377 255.27 79.1452 250.281 81.7672C234.328 90.1502 232.551 112.807 232.929 131.472C217.97 116.125 197.663 106.607 176.748 105.145C167.929 104.528 158.632 105.432 151.148 110.359C137.174 119.558 133.961 139.027 132.074 156.176C127.352 150.572 119.509 148.079 112.614 149.991C105.71 151.904 100.076 158.128 98.6308 165.44C83.4327 157.662 64.5431 162.074 50.6982 172.249C36.8624 182.427 27.1231 197.501 18.249 212.564C27.5281 218.283 38.1788 221.026 48.7282 223.347C102.285 235.137 157.279 237.83 212.005 238.93C276.13 240.219 340.402 239.366 404.214 232.609C407.979 232.21 411.965 231.7 414.938 229.256C417.12 227.461 418.6 224.829 419.679 222.187C458.724 126.636 409.271 82.2364 398.921 70.2364C388.57 58.2364 361.648 46.9146 342.74 50.7658C320.905 55.2139 303.056 75.9148 301.077 99.0895Z" fill="white"/>
<path opacity="0.7" fill-rule="evenodd" clip-rule="evenodd" d="M259.535 167C256.906 159.754 255.999 151.945 257.565 144.367C259.141 136.788 263.721 129.715 270.389 126.404C273.256 124.981 276.407 124.275 279.567 124.046C279.997 124.015 280.437 124 280.868 124C291.621 124 301.074 133.549 307.568 142.739C303.299 141.952 298.93 141.454 294.598 141.454C288.974 141.454 283.405 142.29 278.175 144.417C268.905 148.188 260.927 156.646 259.535 167Z" fill="#DADDE7"/>
<path opacity="0.7" fill-rule="evenodd" clip-rule="evenodd" d="M325.332 213H307.568C307.816 206.111 309.366 199.197 312.982 193.446C315.45 189.508 318.799 186.241 322.359 183.343C327.928 178.812 334.553 175.182 341.618 174.918C346.004 160.715 353.216 146.934 364.685 137.978C371.888 132.357 380.99 129 389.908 129C394.9 129 399.818 130.048 404.323 132.334V132.897C391.486 135.114 380.347 146.719 372.392 157.444C364.263 168.396 359.785 182.483 358.684 196.273C347.628 196.575 336.957 201.737 328.791 209.49C327.598 210.619 326.442 211.791 325.332 213Z" fill="#DADDE7"/>
<g opacity="0.5" filter="url(#filter0_f_0_17959)">
<path fill-rule="evenodd" clip-rule="evenodd" d="M143.929 270.076C132.535 266.891 126.838 265.298 123.059 261.851C119.735 258.819 117.426 254.819 116.464 250.423C115.37 245.427 116.842 239.697 119.784 228.238L153.323 97.6373C156.264 86.183 157.735 80.4558 161.075 76.7006C164.012 73.3975 167.927 71.1386 172.256 70.2477C177.179 69.2349 182.873 70.827 194.263 74.0113L231.864 84.5239C243.257 87.7094 248.954 89.3022 252.733 92.7491C256.058 95.7811 258.366 99.7815 259.328 104.177C260.422 109.174 258.951 114.903 256.008 126.362L222.47 256.963C219.528 268.417 218.057 274.144 214.718 277.899C211.78 281.203 207.866 283.461 203.536 284.352C198.614 285.365 192.919 283.773 181.53 280.589L143.929 270.076Z" fill="#8F271F" fill-opacity="0.283026"/>
</g>
<path fill-rule="evenodd" clip-rule="evenodd" d="M95.8163 155.947L96.9401 155.313L97.0286 155.263L97.0116 155.161L96.7982 153.902L96.7823 153.807L96.6918 153.787L95.3989 153.483L94.7138 150.119L95.7528 149.34L95.8305 149.281L95.8059 149.186L95.4684 147.871L95.4479 147.791L95.369 147.768L94.0547 147.409L93.2046 144.448L94.084 143.573L94.1501 143.507L94.1189 143.419L93.6224 142.028L93.5985 141.962L93.5326 141.941L92.2295 141.537L91.7234 140.186L91.7017 140.129L91.643 140.106L90.8685 139.797L91.26 139.2L91.3035 139.134L91.2734 139.061C90.8539 138.044 90.4075 137.041 89.935 136.05C89.4663 135.057 88.9478 134.09 88.4018 133.142L88.3835 133.11L88.3537 133.095L85.5453 131.644L85.4636 130.02L85.423 129.997L80.5117 127.073L79.2139 116.551L79.2406 124.904L77.5121 124.24L77.6271 124.284L75.8276 124.691L74.1023 126.262L71.8385 116.33L73.5777 129.542L70.4151 131.746L70.3573 131.786L70.3664 131.861L70.6403 134.079C69.9066 134.503 69.1728 134.925 68.4446 135.358L68.3872 135.393L68.3748 135.46C67.8054 138.606 67.3874 141.78 67.1169 144.968L67.1085 145.065L67.1906 145.11L68.6013 145.884L67.0388 146.812L66.9723 146.851L66.9677 146.928L66.8428 149.219L65.7614 149.811L65.6917 149.849L65.6867 149.931L65.6187 151.333L65.6131 151.459L65.7329 151.482L66.757 151.681L66.7326 155.688L65.6026 156.268L65.5235 156.309L65.524 156.4L65.5384 157.715L65.5401 157.854L65.6743 157.858L66.7753 157.889L66.9573 161.928L65.8044 162.48L65.717 162.522L65.7229 162.622L65.8052 163.877L65.815 164.021L65.953 164.013L67.0959 163.942L67.467 168.003L66.3127 168.513L66.2167 168.555L66.2292 168.663L66.3647 169.876L66.3768 169.99L66.4877 170.003L67.7109 170.148L68.2219 173.959L67.0828 174.416L66.9762 174.458L66.994 174.575L67.1795 175.754L67.1969 175.867L67.3072 175.875L68.5299 175.96L69.2034 179.835L68.0922 180.228L67.9757 180.269L68.0001 180.395L68.2261 181.548L68.2451 181.65L68.3452 181.662L69.5858 181.825L70.3934 185.669L69.322 185.993L69.1934 186.031L69.2256 186.167L69.5132 187.397L69.6089 187.408L70.8234 187.568L71.7836 191.505L70.7646 191.749L70.6184 191.783L70.6599 191.933L70.968 193.053L70.997 193.157L71.0987 193.157L72.2304 193.162L73.4604 197.442L72.4377 197.635L72.3689 197.648L72.3909 197.716L72.7583 198.871L72.798 198.864L72.9899 198.827L73.9193 198.864L74.014 199.17C74.2592 199.997 74.5092 200.829 74.7675 201.666L95.1322 198.679C95.159 198.472 95.1838 198.267 95.2106 198.061L95.1416 198.677L95.5586 195.623L96.3852 195.317L96.4116 195.307L96.4161 195.277L96.5922 194.105L96.6041 194.026L96.5263 194.029L95.7775 194.054L96.3666 188.781L97.311 188.238L97.3755 188.2L97.3834 188.123L97.495 186.957L97.5109 186.798L97.3578 186.796L96.5299 186.791L96.8498 181.879L97.895 181.258L97.9604 181.219L97.9659 181.14L98.0377 179.973L98.0471 179.828L97.9058 179.82L96.9448 179.764L97.0588 175.071L98.2472 174.432L98.2473 174.345L98.2624 173.17L98.2648 173.037L98.1379 173.024L97.0633 172.91L96.971 168.433L98.1189 167.884L98.2033 167.843L98.2 167.747L98.1559 166.553L98.1516 166.433L98.0369 166.417L96.8671 166.239L96.5639 162.104L97.723 161.494L97.81 161.449L97.7999 161.35L97.6762 160.129L97.6649 160.021L97.5629 160.002L96.3234 159.761L95.8163 155.947Z" fill="#FF4A3C"/>
<path fill-rule="evenodd" clip-rule="evenodd" d="M77.2657 186.532L77.2157 186.495L73.6712 183.867L73.4949 181.469C73.4336 180.648 73.3817 179.825 73.3108 179.004L73.3059 178.944L73.2625 178.908L71.2575 177.217L70.4651 170.37L70.3831 169.57L69.5394 168.859L69.197 163.772C69.1886 163.654 69.0899 163.565 68.9776 163.574C68.8682 163.58 68.7795 163.684 68.7869 163.802L69.1036 168.491L68.5811 168.051L68.1578 168.349L67.832 160.953C67.8267 160.835 67.7309 160.743 67.6182 160.748C67.5022 160.753 67.4174 160.854 67.4226 160.973L67.7589 168.629L66.7364 169.347L66.4627 173.132L66.1907 172.892L66.176 172.878L66.1561 172.881L65.8275 172.936C65.2731 172.546 64.6163 172.364 63.9675 172.274C63.3074 172.187 62.6387 172.188 61.9774 172.251C60.6552 172.381 59.357 172.729 58.1217 173.242C57.503 173.495 56.9069 173.811 56.3369 174.172C55.7694 174.534 55.2229 174.942 54.7373 175.428C54.2579 175.912 53.8195 176.479 53.6027 177.174C53.5355 177.342 53.5279 177.532 53.4997 177.712C53.5098 177.898 53.4986 178.085 53.5521 178.268C53.6292 178.578 53.8019 178.852 54.0167 179.072L51.987 180.917C51.0412 181.069 50.1187 181.338 49.2239 181.686C48.3196 182.042 47.4403 182.482 46.6324 183.046C45.8299 183.61 45.0647 184.277 44.5436 185.166C44.2966 185.613 44.1196 186.142 44.1889 186.689C44.2525 187.233 44.6057 187.694 45.02 187.974C45.2091 188.234 45.455 188.431 45.7175 188.585C45.0643 189.622 44.4561 190.692 43.9257 191.807L43.9074 191.846L44.4373 195.782C42.4037 198.981 40.8512 202.502 39.7705 206.166L39.7625 206.194L39.7653 206.223C39.859 207.15 39.9571 208.077 40.0613 209.002L40.3835 211.729L40.3985 211.943L41.512 211.781C41.1819 212.279 40.8916 212.8 40.6119 213.322L40.5896 213.363L40.596 213.411L41.3134 218.58C41.5654 220.301 41.8229 222.023 42.0979 223.739C42.6387 227.176 43.2295 230.603 43.8339 234.027L44.7677 239.159C45.0699 240.87 45.421 242.573 45.7629 244.277C46.4526 247.683 47.1567 251.085 47.8744 254.485L47.8746 254.486L80.1215 249.755C80.1204 249.453 80.1175 249.153 80.1153 248.851L80.1443 243.161C80.1373 240.963 80.1621 238.763 80.0888 236.565L79.9457 229.971C79.8841 227.773 79.8225 225.575 79.7386 223.378L79.6169 220.082L79.4731 216.788C79.4332 215.689 79.3635 214.592 79.2971 213.494L79.1011 210.203C78.8324 205.815 78.6102 201.422 78.2428 197.04L78.2371 196.966L78.1754 196.929L76.524 195.933L78.0044 195.46L78.2794 195.372L78.0914 195.24L77.2721 186.596L77.2657 186.532Z" fill="#E9CD99"/>
<path fill-rule="evenodd" clip-rule="evenodd" d="M99.8283 143.162L161.205 142.497L177.583 160.946L203.214 135.477L219.633 229.994L76.2044 251.308L77.7681 244.639L77.9234 193.468L99.8283 143.162Z" fill="#FFCF6F"/>
<path fill-rule="evenodd" clip-rule="evenodd" d="M62.3804 193.888L61.3649 193.228L62.3351 191.97L62.3804 193.888ZM62.4285 191.917C62.5051 192.001 62.6044 192.048 62.7227 192.044C62.797 192.095 62.8816 192.127 62.9823 192.112C63.1167 192.093 63.2446 192.002 63.3557 191.881L63.4767 194.6L62.4767 193.952L62.4285 191.917ZM66.1784 194.511C66.2516 194.578 66.3391 194.616 66.4435 194.613C66.5178 194.664 66.6024 194.696 66.7042 194.681C66.8406 194.661 66.9695 194.569 67.0813 194.446L67.1589 196.994L66.236 196.393L66.1739 194.517L66.1784 194.511ZM70.3856 246.353L69.6944 246.385L70.3856 246.353ZM29.6117 253.667L24.6654 253.614L24.9699 253.555L29.6117 253.667ZM68.3537 246.448L67.3381 246.494L68.3537 246.448ZM67.102 246.505L65.8165 246.566L67.102 246.505ZM64.216 246.639L64.0555 246.647L64.216 246.639ZM30.1191 254.559L33.2988 253.983L30.1191 254.559ZM30.6888 253.457L29.8255 253.625L30.6888 253.457ZM40.3161 252.712L39.6444 252.833L40.3161 252.712ZM31.6284 253.276L33.8859 252.837L34.597 252.698L30.9027 253.417L31.6284 253.276ZM39.1184 251.82L35.9381 252.439L39.1184 251.82ZM35.6054 252.503L35.7242 252.48L34.8107 252.657L35.6054 252.503ZM37.788 253.169L35.1266 253.652L37.788 253.169ZM67.2562 197.057L67.1723 194.328C67.2693 194.182 67.3446 194.01 67.3677 193.824C67.4118 193.468 67.2686 193.207 67.0407 193.152C66.9529 193.048 66.8345 192.987 66.6897 193.009C66.3634 193.056 66.0554 193.455 65.9997 193.899C65.9835 194.026 65.9953 194.137 66.0196 194.238L64.574 195.295L65.24 195.727L66.0827 194.635L66.1386 196.33L63.5742 194.665L63.4455 191.769C63.5455 191.622 63.6223 191.445 63.6459 191.255C63.6901 190.9 63.5468 190.638 63.3189 190.583C63.2311 190.479 63.1128 190.419 62.968 190.44C62.6416 190.488 62.3336 190.886 62.2779 191.331C62.2643 191.444 62.2688 191.549 62.2867 191.642L60.7036 192.799L54.1041 188.51L52.2172 189.913L50.6427 188.296L49.4866 189.27L49.8901 191.647L47.3052 193.572L47.9703 193.076L46.3616 191.507L45.223 192.476L45.6237 194.825L43.7234 196.24L42.0792 194.717L40.9594 195.682L41.3573 198.002L39.4754 199.403L37.797 197.928L36.6957 198.888L37.0908 201.179L34.4193 203.168L35.2285 202.566L33.5146 201.138L32.4321 202.094L32.8244 204.356L31.0933 205.645L32.061 210.639L32.7104 210.789L32.5934 210.811L33.7502 217.487L18.9397 227.857L19.6355 230.966L20.2637 231.11L24.4589 253.654L24.2082 254.402L25.8315 258.43L41.7457 257.427L43.581 257.158L44.1446 257.076L44.624 257.005L44.6691 256.998L44.7236 256.99L45.2221 256.917L45.6671 256.853L45.7121 256.845L45.7215 256.844L45.7666 256.837L46.71 256.699L46.7561 256.692L46.7645 256.691L46.8107 256.684L47.753 256.545L47.796 256.539L47.8516 256.531L48.9659 256.368L49.5285 256.286L50.606 256.127L51.0521 256.063L54.7318 255.522L55.2933 255.44L56.1473 255.314L56.1905 255.309L56.2019 255.306L56.245 255.301L56.3719 255.281L56.8169 255.217L57.1872 255.161L57.2335 255.156L57.2881 255.148L58.2302 255.008L58.2765 255.003L58.2847 255L58.331 254.995L69.955 253.288L69.974 249.582L69.9784 248.908L70.4954 248.854L70.518 247.242L71.1104 247.199L71.1831 246.316L70.6801 246.339L69.638 205.14L69.5198 205.144L70.1228 204.719L70.053 198.875L67.2562 197.057Z" fill="white"/>
<path fill-rule="evenodd" clip-rule="evenodd" d="M32.5354 249.818L36.9817 247.246L36.7725 241.67L32.298 241.665L36.6836 239.326L36.4789 233.855L32.2188 233.518L36.3881 231.44L36.1839 226.013L32.9878 225.584L36.0926 223.594L35.8944 218.299L33.3266 217.745L35.7998 215.792L35.6006 210.482L32.7283 209.756L35.509 208.037L35.3137 202.851L32.5101 201.936L35.2189 200.335L35.0293 195.279L32.3244 194.151L34.9325 192.692L34.7478 187.791L32.2665 186.537L34.6473 185.114L34.4703 180.398L32.1355 178.999L34.3657 177.61L34.1965 173.11L31.8743 171.487L34.0868 170.189L33.2575 148.119C13.9204 171.217 12.9399 208.321 24.1355 254.354L37.1943 252.902L37.0702 249.62L32.5354 249.818Z" fill="#E5E6EE"/>
<path fill-rule="evenodd" clip-rule="evenodd" d="M33.8679 164.36L33.2575 148.119C30.6766 151.202 28.4249 154.537 26.4832 158.109L33.8679 164.36Z" fill="#E5E6EE"/>
<path fill-rule="evenodd" clip-rule="evenodd" d="M36.0928 223.595L21.4968 221.728C21.5705 222.529 21.6498 223.333 21.7335 224.138L32.9979 225.579L36.0928 223.595ZM32.219 233.518L36.3884 231.44L22.4902 230.52C22.5962 231.316 22.7055 232.112 22.8204 232.91L32.219 233.518ZM35.8001 215.793L20.8802 212.903C20.9183 213.71 20.9642 214.52 21.0123 215.331L33.356 217.723L35.8001 215.793ZM32.5357 249.819L36.982 247.246L25.4182 247.786C25.5766 248.565 25.7417 249.346 25.909 250.128L32.5368 249.818L32.5357 249.819ZM36.684 239.326L23.8136 239.221C23.9475 240.009 24.0835 240.796 24.2252 241.587L32.3235 241.653L36.684 239.326ZM31.8747 171.487L34.0871 170.188L26.1034 164.607C25.8714 165.396 25.6497 166.189 25.4335 166.983L31.8747 171.487ZM32.1358 178.999L34.366 177.61L24.2793 171.572C24.0936 172.371 23.9158 173.172 23.7447 173.976L32.1358 178.999ZM32.2665 186.537L34.6473 185.115L22.7601 179.104C22.6215 179.91 22.4885 180.718 22.3645 181.53L32.2665 186.537ZM35.5092 208.038L20.6805 204.125C20.6797 204.938 20.6854 205.751 20.6957 206.566L32.7463 209.746L35.5092 208.038ZM35.2191 200.335L20.9255 195.493C20.8807 196.305 20.8451 197.121 20.8128 197.938L32.5469 201.914L35.2191 200.335ZM32.3319 194.148L21.3726 189.553C21.4501 188.738 21.5353 187.924 21.6262 187.114L34.9329 192.692L32.3319 194.148Z" fill="white"/>
<path fill-rule="evenodd" clip-rule="evenodd" d="M33.5681 159.158L33.7239 164.678C33.7756 166.477 33.8198 168.276 33.8918 170.074L31.7819 171.315L31.5152 171.473L31.7693 171.651L34.0123 173.219L34.1726 177.501L32.0382 178.83L31.7619 179.003L34.2861 180.514L34.4549 185.002L32.1732 186.366L31.8632 186.551L32.1848 186.714L34.5637 187.916L34.7396 192.577L32.2362 193.979L31.879 194.179L32.2553 194.335L34.8457 195.415L35.0265 200.223L32.4166 201.765L32.0381 201.989L32.4532 202.124L35.1304 202.998L35.316 207.929L32.632 209.587L32.233 209.834L32.6838 209.948L35.4175 210.638L35.6075 215.697L33.2138 217.588L32.8819 217.85L33.2886 217.937L35.7121 218.461L35.9009 223.488L32.8895 225.417L32.4346 225.709L32.9642 225.78L36.0022 226.187L36.1944 231.319L32.1384 233.34L31.4997 233.659L32.2047 233.714L36.2963 234.038L36.4914 239.207L32.2127 241.49L31.517 241.862L32.2981 241.862L36.5906 241.867C36.655 243.625 36.712 245.384 36.7988 247.141L32.4741 249.703L32.0054 249.981L32.5408 249.952L36.9938 249.71L37.457 258.165L37.1523 249.616L37.1496 249.532L37.0676 249.535L33.0687 249.668L37.0681 247.409L37.1626 247.356L37.1598 247.239C37.1138 245.38 37.0316 243.521 36.961 241.662L36.9538 241.473L36.7729 241.473L33.0799 241.47L36.7705 239.5L36.8774 239.444L36.8732 239.317L36.6676 233.848L36.6612 233.673L36.4936 233.66L32.9385 233.378L36.4691 231.618L36.5814 231.562L36.5768 231.433L36.3726 226.006L36.3662 225.839L36.2083 225.818L33.5428 225.46L36.1925 223.762L36.2861 223.702L36.2824 223.587L36.0773 218.138L35.9329 218.106L33.7729 217.64L35.9143 215.949L35.9926 215.887L35.9894 215.784L35.7891 210.474L35.7842 210.326L35.6456 210.29L33.2243 209.679L35.6049 208.207L35.7018 208.148L35.6977 208.03L35.5024 202.844L35.4976 202.705L35.37 202.663L32.9817 201.884L35.313 200.507L35.413 200.448L35.4087 200.328L35.218 195.272L35.2136 195.144L35.1002 195.096L32.7706 194.126L35.0213 192.865L35.1258 192.807L35.121 192.684L34.9374 187.783L34.9323 187.665L34.8312 187.614L32.6715 186.522L34.7413 185.285L34.8413 185.225L34.8369 185.106L34.6589 180.389L34.655 180.281L34.5642 180.227L32.5089 178.996L34.4626 177.779L34.5593 177.719L34.5542 177.602L34.3862 173.103L34.3823 173.002L34.3021 172.947L32.235 171.502L34.181 170.363L34.2833 170.304L34.2785 170.181C34.215 168.342 34.1215 166.503 34.0367 164.665L33.2578 148.119L33.5681 159.158Z" fill="#CEE8E0"/>
<path fill-rule="evenodd" clip-rule="evenodd" d="M67.1871 140.944L52.9746 133.367C67.3548 158.523 71.3523 202.599 72.0571 252.675L78.76 251.692C89.5477 213.289 80.8592 157.896 67.1871 140.944Z" fill="white"/>
<path fill-rule="evenodd" clip-rule="evenodd" d="M52.9751 133.367L33.6943 144.811C32.7438 150.006 32.0339 155.359 31.5635 160.87L34.3316 162.388L31.3124 164.179C29.5221 191.017 33.4617 221.614 44.3142 256.745L72.0576 252.675C71.3527 202.599 67.3553 158.523 52.9751 133.367Z" fill="#FFCB64"/>
<path fill-rule="evenodd" clip-rule="evenodd" d="M37.5801 142.504L37.0602 138.642L50.9358 128.728L51.3429 134.335L37.5801 142.504Z" fill="#E7A341"/>
<path fill-rule="evenodd" clip-rule="evenodd" d="M50.9357 128.728L62.2628 135.649L62.37 138.377L52.9749 133.367L51.3429 134.335L50.9357 128.728Z" fill="white"/>
<path fill-rule="evenodd" clip-rule="evenodd" d="M59.3485 147.535C59.0379 146.666 58.7203 145.81 58.3949 144.967L31.5632 160.87L34.3312 162.388L59.3485 147.535Z" fill="white"/>
<path fill-rule="evenodd" clip-rule="evenodd" d="M61.5922 151.5L29.1461 169.255C29.1021 170.041 29.065 170.831 29.0315 171.623L62.3399 153.818" fill="#E7A341"/>
<path fill-rule="evenodd" clip-rule="evenodd" d="M64.6014 161.859L28.8718 180.182C28.8748 180.92 28.8826 181.661 28.8948 182.404L65.1309 164.067L64.6014 161.859Z" fill="#E7A341"/>
<path fill-rule="evenodd" clip-rule="evenodd" d="M66.9453 172.622L29.2074 190.692C29.2488 191.397 29.2972 192.106 29.3467 192.815L67.3319 174.754" fill="#E7A341"/>
<path fill-rule="evenodd" clip-rule="evenodd" d="M70.173 195.332C70.2421 196.005 70.3053 196.689 70.3708 197.366L70.173 195.332Z" fill="#E7A341"/>
<path fill-rule="evenodd" clip-rule="evenodd" d="M70.173 195.332L31.3551 210.888C31.456 211.55 31.5604 212.214 31.6672 212.88L70.3709 197.366C70.3191 196.831 70.2691 196.292 70.2145 195.759L70.173 195.332Z" fill="#E7A341"/>
<path fill-rule="evenodd" clip-rule="evenodd" d="M30.2905 202.951L69.0523 185.866L68.7718 183.79L30.0614 200.9C30.1339 201.581 30.211 202.265 30.2905 202.951Z" fill="#E7A341"/>
<path fill-rule="evenodd" clip-rule="evenodd" d="M29.0317 171.623L30.9568 171.998L62.078 156.124L62.3401 153.819L29.0317 171.623Z" fill="white"/>
<path fill-rule="evenodd" clip-rule="evenodd" d="M28.8948 182.404L65.1309 164.067L64.5467 166.11L30.9754 182.463L28.8948 182.404Z" fill="white"/>
<path fill-rule="evenodd" clip-rule="evenodd" d="M29.3465 192.816L67.3317 174.755L66.6684 177.291L31.505 192.682L29.3465 192.816Z" fill="white"/>
<path fill-rule="evenodd" clip-rule="evenodd" d="M30.2905 202.95L69.0524 185.866L68.1764 187.633L32.5377 203.214L30.2905 202.95Z" fill="white"/>
<path fill-rule="evenodd" clip-rule="evenodd" d="M31.6672 212.88L70.3709 197.366L69.4755 199.283L33.9195 213.038L31.6672 212.88Z" fill="white"/>
<path fill-rule="evenodd" clip-rule="evenodd" d="M43.3139 138.966L38.4621 141.769C36.846 142.705 35.2233 143.63 33.6174 144.586L33.5204 144.644L33.4993 144.757C32.5368 150.078 31.8292 155.449 31.3709 160.842L31.3575 161.005L31.4962 161.082L33.8829 162.39L31.2384 163.96L31.1274 164.026L31.1204 164.156L30.9079 168.03L29.0791 169.03L28.9606 169.096L28.9536 169.234L28.8385 171.607L28.8276 171.82L29.031 171.86L30.7637 172.196L30.7208 178.975L28.8101 179.955L28.6769 180.023L28.6784 180.177L28.7019 182.402L28.7047 182.638L28.9324 182.644L30.7939 182.697L31.1027 189.529L29.1516 190.463L29.0039 190.534L29.0146 190.701L29.1542 192.827L29.1697 193.069L29.4032 193.055L31.3367 192.936L31.964 199.804L30.0117 200.667L29.8492 200.739L29.8693 200.92L30.0988 202.974L30.1204 203.167L30.3075 203.189L32.3764 203.432L33.2412 209.879L31.3133 210.652L31.1336 210.724L31.1643 210.921L31.5078 213.106L31.6947 213.119L33.7634 213.265L34.9024 219.818L33.022 220.483L32.825 220.553L33.2477 222.715L33.2806 222.888L33.4493 222.909L35.5481 223.183L36.9138 229.687L35.1021 230.234L34.8841 230.3L34.9384 230.528L35.3879 232.444L35.426 232.608L35.5873 232.63L37.6414 232.897L39.2656 239.557L37.5418 239.971L37.2951 240.029L37.3645 240.282L37.887 242.176L37.9352 242.352L38.1065 242.352L40.0221 242.363L42.1009 249.601L40.3728 249.927L40.2559 249.948L40.2917 250.063L40.8911 251.948L40.9144 252.018L40.9813 252.006L42.7717 251.667L44.3567 256.739L42.8679 251.579L42.8536 251.528L42.8013 251.537L41.0249 251.83L40.5215 250.117L42.2803 249.829L42.4154 249.807L42.378 249.664L40.3807 242.085L40.3283 241.887L40.1558 241.925L38.2889 241.871L37.8959 240.399L39.6072 239.98L39.8412 239.922L38.0602 232.614L38.0002 232.368L37.8088 232.424L35.8079 232.162L35.4511 230.641L37.2567 230.096L37.4696 230.032L35.9167 222.639L35.7154 222.709L33.6765 222.443L33.3708 220.879L35.2459 220.215L35.439 220.147L35.4019 219.936L34.1952 212.991L34.1446 212.703L33.9285 212.783L31.9129 212.642L31.6619 211.04L33.5857 210.268L33.7604 210.199L33.7349 210.001L32.8192 203.176L32.7761 202.856L32.5467 202.956L30.5463 202.722L30.3594 201.048L32.3076 200.187L32.4672 200.116L32.4499 199.932L31.7849 192.656L31.7542 192.317L31.4927 192.433L29.609 192.549L29.4975 190.839L31.4446 189.906L31.5894 189.838L31.5814 189.667L31.2559 182.449L31.2386 182.074L30.9679 182.209L29.172 182.159L29.1524 180.328L31.0601 179.349L31.1912 179.282L31.1926 179.125L31.2366 171.997L31.2394 171.596L30.9669 171.734L29.3209 171.414L29.418 169.401L31.2457 168.401L31.3643 168.336L31.372 168.194L31.5845 164.321L34.4905 162.595L34.8661 162.372L34.4837 162.163L31.8577 160.723C32.3147 155.438 32.9959 150.174 33.954 144.964C35.5285 144.03 37.0876 143.069 38.6523 142.117L53.0175 133.361L43.3139 138.966Z" fill="#F9CC80"/>
<path fill-rule="evenodd" clip-rule="evenodd" d="M62.1933 138.384L62.1148 135.656L62.1873 135.781L50.9355 128.728L62.3368 135.516L62.4054 135.557L62.4095 135.643L62.5474 138.368L62.1933 138.384Z" fill="#CEE8E0"/>
<path fill-rule="evenodd" clip-rule="evenodd" d="M50.9356 128.728L36.951 138.476L36.8532 138.544L36.8691 138.67L37.346 142.538L37.814 142.469L37.2695 138.735L50.9356 128.728Z" fill="#F9CC80"/>
<path fill-rule="evenodd" clip-rule="evenodd" d="M67.9638 161.621L183.829 109.034L186.91 235.725L89.7657 249.977L67.9638 161.621Z" fill="#FF4A3C"/>
<path fill-rule="evenodd" clip-rule="evenodd" d="M88.1336 200.686L86.3559 192.258L78.8233 194.351L80.9575 203.074L88.1336 200.686Z" fill="#8F2018"/>
<path fill-rule="evenodd" clip-rule="evenodd" d="M77.7618 188.31L85.2841 185.807L83.507 177.384L75.6246 179.573L77.7618 188.31Z" fill="#8F2018"/>
<path fill-rule="evenodd" clip-rule="evenodd" d="M82.4348 170.928L80.8596 163.464L72.7305 166.038L74.5675 173.547L82.4348 170.928Z" fill="#8F2018"/>
<path fill-rule="evenodd" clip-rule="evenodd" d="M88.8294 222.662L158.331 202.946L146.064 66.3535L69.418 118.443L88.8294 222.662Z" fill="#FFCB64"/>
<path fill-rule="evenodd" clip-rule="evenodd" d="M84.7713 185.978L71.4656 119.083L82.2398 111.74L82.4728 113.041C82.4199 113.149 82.3681 113.257 82.3176 113.367L82.5518 113.485C82.4938 113.603 82.4361 113.723 82.3814 113.841L82.6399 113.973L82.8035 114.886L75.8351 120.073L85.8257 185.019C85.4648 185.335 85.1131 185.656 84.7713 185.978ZM123.423 84.6618L123.3 83.7563L139.249 72.8865L123.423 84.6618Z" fill="#FF4A3C"/>
<path fill-rule="evenodd" clip-rule="evenodd" d="M88.8296 222.662L96.0805 221.99L158.165 205.506L158.331 202.946L140.149 208.104C125.108 210.441 111.884 213.891 101.485 219.072L88.8296 222.662Z" fill="#234470"/>
<path fill-rule="evenodd" clip-rule="evenodd" d="M158.331 202.946L169.968 203.174L170.005 204.759L158.165 205.505L158.331 202.946Z" fill="#234470"/>
<path fill-rule="evenodd" clip-rule="evenodd" d="M183.829 109.034L227.912 135.574L226.983 229.846L186.91 235.725L183.829 109.034Z" fill="#FFCB64"/>
<path fill-rule="evenodd" clip-rule="evenodd" d="M146.064 66.3535L215.423 105.874L216.243 128.548L183.829 109.034L164.079 117.998L169.968 203.174L158.331 202.946L146.064 66.3535Z" fill="#FF4A3C"/>
<path fill-rule="evenodd" clip-rule="evenodd" d="M137.17 185.994C115.444 187.567 103.237 191.375 97.5784 198.338L97.9792 198.692C103.538 191.851 115.636 188.108 137.206 186.54L137.17 185.994ZM135.586 174.349C119.707 175.865 102.55 178.645 95.6772 187.776L96.0888 188.115C102.84 179.146 119.865 176.397 135.635 174.894L135.586 174.349ZM134.002 162.706C116.974 164.718 100.311 167.864 93.7751 177.216L94.2005 177.538C100.616 168.357 117.156 165.246 134.061 163.249L134.002 162.706ZM132.418 151.062C131.698 151.164 130.986 151.265 130.282 151.368C111.303 154.153 97.5465 157.931 91.8747 166.653L92.3109 166.961C98.0828 158.084 112.578 154.412 132.487 151.605L132.418 151.062ZM130.832 139.418C113.577 142.217 96.2087 145.811 89.9753 156.091L90.4193 156.385C96.5354 146.299 113.777 142.739 130.913 139.959L130.832 139.418ZM129.249 127.775C110.944 131.142 94.0228 135.034 88.0763 145.53L88.5292 145.81C94.3611 135.512 111.162 131.658 129.34 128.315L129.249 127.775ZM127.665 116.132C108.324 120.104 91.8526 124.261 86.1772 134.967L86.6377 135.232C92.2018 124.733 108.557 120.614 127.768 116.671L127.665 116.132ZM126.082 104.49C105.71 109.103 89.6949 113.498 84.2788 124.405L84.7461 124.657C90.0559 113.962 105.958 109.607 126.193 105.025L126.082 104.49ZM124.497 92.8464C106.53 97.2888 87.9523 101.883 82.3815 113.842L82.8536 114.082C88.3156 102.356 106.771 97.7922 124.619 93.3797L124.497 92.8464Z" fill="#FF5D50"/>
<path fill-rule="evenodd" clip-rule="evenodd" d="M137.107 185.519C115.381 187.092 103.173 190.901 97.5151 197.864L97.9157 198.217C103.475 191.377 115.573 187.634 137.143 186.065L137.107 185.519ZM135.523 173.873C119.643 175.391 102.486 178.17 95.6136 187.302L96.0252 187.641C102.776 178.671 119.802 175.923 135.572 174.42L135.523 173.873ZM133.938 162.231C116.91 164.244 100.247 167.389 93.7115 176.742L94.1369 177.064C100.553 167.883 117.092 164.772 133.997 162.776L133.938 162.231ZM132.354 150.588C131.634 150.689 130.922 150.79 130.218 150.893C111.24 153.678 97.4829 157.457 91.8112 166.179L92.2474 166.487C98.0191 157.609 112.515 153.938 132.423 151.131L132.354 150.588ZM130.769 138.944C113.514 141.743 96.1452 145.337 89.9118 155.617L90.3558 155.911C96.4718 145.823 113.713 142.265 130.85 139.485L130.769 138.944ZM129.185 127.301C110.881 130.668 93.959 134.559 88.0126 145.056L88.4653 145.335C94.2974 135.038 111.098 131.184 129.276 127.841L129.185 127.301ZM127.601 115.658C108.26 119.628 91.7886 123.787 86.1132 134.493L86.5738 134.758C92.1378 124.259 108.493 120.139 127.704 116.195L127.601 115.658ZM126.018 104.016C105.646 108.628 89.631 113.023 84.2151 123.931L84.6822 124.182C89.9922 113.488 105.894 109.132 126.129 104.55L126.018 104.016ZM124.433 92.3723C106.466 96.8136 87.8886 101.409 82.3178 113.368L82.7899 113.608C88.2519 101.882 106.707 97.3181 124.555 92.9044L124.433 92.3723Z" fill="#FF4A3C"/>
<path fill-rule="evenodd" clip-rule="evenodd" d="M122.49 117.78C122.414 117.632 122.339 117.487 122.263 117.34C122.418 117.307 122.573 117.273 122.729 117.24C122.746 117.398 122.762 117.559 122.779 117.717C122.682 117.738 122.587 117.759 122.49 117.78Z" fill="#2C7572"/>
<path fill-rule="evenodd" clip-rule="evenodd" d="M84.8309 211.243L85.5318 211.14C96.1068 192.693 125.938 190.168 157.358 189.166L158.206 188.074C128.462 186.906 94.0032 191.454 84.8309 211.243Z" fill="#551837"/>
<path fill-rule="evenodd" clip-rule="evenodd" d="M158.207 188.074L157.093 165.761C117.717 166.492 90.4956 176.295 80.0996 191.373L84.8313 211.243C92.4643 195.312 122.027 187.398 158.207 188.074Z" fill="url(#paint0_linear_0_17959)"/>
<path fill-rule="evenodd" clip-rule="evenodd" d="M87.5935 216.025L86.416 209.702C86.416 209.702 86.4169 209.701 86.4178 209.7C87.1549 208.578 87.9709 207.518 88.8573 206.52C88.8573 206.52 94.5345 201.295 97.9579 199.399L99.4086 207.488" fill="#8F2018"/>
<path fill-rule="evenodd" clip-rule="evenodd" d="M158.229 201.809C156.874 201.43 155.507 201.092 154.131 200.792C153.704 196.971 153.288 193.148 152.881 189.321C154.282 189.268 155.685 189.22 157.094 189.175L158.229 201.809Z" fill="#8F2018"/>
<path fill-rule="evenodd" clip-rule="evenodd" d="M154.131 200.793C149.132 199.703 144.008 199.119 138.914 198.987L138.767 197.904L138.756 197.637C138.748 197.637 138.739 197.637 138.731 197.638L138.704 197.433L138.692 197.161C138.684 197.162 138.675 197.163 138.667 197.163L137.717 190.149C142.652 189.77 147.734 189.516 152.881 189.321C153.288 193.148 153.704 196.971 154.131 200.793Z" fill="#8F2018"/>
<path fill-rule="evenodd" clip-rule="evenodd" d="M86.4177 209.7C86.5157 209.505 91.0629 200.593 104.088 196.06C110.979 193.661 118.524 192.069 125.703 191.016C142.376 188.57 157.081 189.028 157.081 189.028L157.094 189.176C155.685 189.22 154.282 189.269 152.881 189.321C147.735 189.516 142.652 189.77 137.717 190.149C136.925 190.21 136.141 190.273 135.359 190.341C134.583 190.407 133.809 190.478 133.043 190.552C132.158 190.637 131.28 190.727 130.407 190.822C128.272 191.054 126.176 191.318 124.121 191.619C123.405 191.724 122.696 191.834 121.992 191.949C120.216 192.236 118.475 192.555 116.776 192.907C115.699 193.131 114.636 193.369 113.594 193.619C109.903 194.511 106.433 195.586 103.237 196.889C103.102 196.945 102.965 197.001 102.83 197.057C102.049 197.383 101.286 197.722 100.539 198.076C100.488 198.1 100.439 198.124 100.389 198.148C100.196 198.24 100.004 198.333 99.814 198.427C99.7548 198.456 99.6957 198.486 99.6375 198.515C99.0661 198.801 98.5075 199.095 97.9578 199.399C94.5344 201.295 91.5463 203.556 89.0925 206.257C89.0133 206.344 88.9353 206.432 88.8572 206.52C87.9708 207.518 87.1548 208.578 86.4177 209.7Z" fill="#281421"/>
<path fill-rule="evenodd" clip-rule="evenodd" d="M159.055 205.214L170.005 204.76L172.729 237.806L172.209 237.882L169.331 205.666L159.147 206.247L159.055 205.214Z" fill="#25263A"/>
<path fill-rule="evenodd" clip-rule="evenodd" d="M169.968 203.174L158.331 202.946L157.094 189.175C157.183 189.172 157.27 189.169 157.358 189.166L158.206 188.074L157.093 165.76C156.389 165.773 155.692 165.789 154.996 165.808L146.064 66.3535L215.423 105.874C207.917 103.307 201.26 102.425 195.483 103.273C190.227 104.044 185.696 106.244 181.905 109.907L175.349 112.882L164.079 117.998L167.65 169.647C167.832 179.657 168.602 190.827 169.968 203.174Z" fill="#FF4A3C"/>
<path fill-rule="evenodd" clip-rule="evenodd" d="M157.358 189.166C157.27 189.169 157.183 189.173 157.094 189.176L156.994 188.054C157.396 188.061 157.802 188.066 158.207 188.074L157.358 189.166Z" fill="#441532"/>
<path fill-rule="evenodd" clip-rule="evenodd" d="M213.937 231.76L212.599 206.314L223.209 207.249L223.329 230.382L213.937 231.76Z" fill="#FF6C61"/>
<path fill-rule="evenodd" clip-rule="evenodd" d="M174.881 194.845L183.39 191.894L182.947 179.344L173.926 182.473L174.881 194.845Z" fill="#8F2018"/>
<path fill-rule="evenodd" clip-rule="evenodd" d="M179.12 134.938L178.597 120.1L168.151 124.624L169.213 138.373L179.12 134.938Z" fill="#8F2018"/>
<path fill-rule="evenodd" clip-rule="evenodd" d="M172.218 167.873L181.425 164.679L180.982 152.129L171.261 155.499L172.218 167.873Z" fill="#8F2018"/>
<path fill-rule="evenodd" clip-rule="evenodd" d="M191.587 132.248L193.686 198.018L206.802 199.515L207.017 140.022L191.587 132.248Z" fill="#EFF3F7"/>
<path fill-rule="evenodd" clip-rule="evenodd" d="M191.074 132.957L192.104 132.508L192.084 130.113L190.996 130.733L191.074 132.957Z" fill="#FF6C61"/>
<path fill-rule="evenodd" clip-rule="evenodd" d="M192.084 130.113L207.814 139.202L207.648 140.76L207.014 141.048L191.074 132.957L192.104 132.508L192.084 130.113Z" fill="#FF6C61"/>
<path fill-rule="evenodd" clip-rule="evenodd" d="M191.602 132.727L191.587 132.249L192.103 132.508L191.602 132.727Z" fill="#FF6C61"/>
<path fill-rule="evenodd" clip-rule="evenodd" d="M207.014 141.048L191.619 133.234L191.602 132.727L192.103 132.508L207.017 140.022L207.014 141.048Z" fill="#FF4A3C"/>
<path fill-rule="evenodd" clip-rule="evenodd" d="M211.023 142.291L212.887 200.664L224.527 201.994L224.719 149.191L211.023 142.291Z" fill="#EFF3F7"/>
<path fill-rule="evenodd" clip-rule="evenodd" d="M210.569 142.921L211.481 142.522L211.465 140.395L210.499 140.947L210.569 142.921Z" fill="#FF6C61"/>
<path fill-rule="evenodd" clip-rule="evenodd" d="M211.465 140.395L225.425 148.464L225.278 149.846L224.715 150.103L210.569 142.921L211.481 142.522L211.465 140.395Z" fill="#FF6C61"/>
<path fill-rule="evenodd" clip-rule="evenodd" d="M211.504 157.349L211.051 143.166L211.504 157.349Z" fill="#422F4B"/>
<path fill-rule="evenodd" clip-rule="evenodd" d="M211.037 142.717L211.023 142.292L211.482 142.522L211.037 142.717Z" fill="#FF6C61"/>
<path fill-rule="evenodd" clip-rule="evenodd" d="M224.715 150.103L211.051 143.166L211.037 142.717L211.481 142.522L224.719 149.191L224.715 150.102" fill="#FF4A3C"/>
</g>
<defs>
<filter id="filter0_f_0_17959" x="55.1048" y="8.94621" width="265.583" height="336.708" filterUnits="userSpaceOnUse" color-interpolation-filters="sRGB">
<feFlood flood-opacity="0" result="BackgroundImageFix"/>
<feBlend mode="normal" in="SourceGraphic" in2="BackgroundImageFix" result="shape"/>
<feGaussianBlur stdDeviation="30.4991" result="effect1_foregroundBlur_0_17959"/>
</filter>
<linearGradient id="paint0_linear_0_17959" x1="143.21" y1="160.035" x2="90.9074" y2="209.677" gradientUnits="userSpaceOnUse">
<stop stop-color="#E73C2F"/>
<stop offset="1" stop-color="#FF4A3C"/>
</linearGradient>
</defs>
</svg>
